<svg xmlns="http://www.w3.org/2000/svg" viewBox="0 0 100 100">
  <defs>
    <linearGradient id="hexGrad" x1="0%" y1="0%" x2="100%" y2="100%">
      <stop offset="0%" style="stop-color:#00ffff;stop-opacity:1" />
      <stop offset="100%" style="stop-color:#0a5a5a;stop-opacity:1" />
    </linearGradient>
    <linearGradient id="penGrad" x1="0%" y1="0%" x2="100%" y2="100%">
      <stop offset="0%" style="stop-color:#ffffff;stop-opacity:1" />
      <stop offset="100%" style="stop-color:#00ffff;stop-opacity:1" />
    </linearGradient>
  </defs>

  <!-- Background hexagon -->
  <polygon
    points="50,5 93,27.5 93,72.5 50,95 7,72.5 7,27.5"
    fill="#0a0a0a"
    stroke="url(#hexGrad)"
    stroke-width="3"
  />

  <!-- Inner hexagon glow -->
  <polygon
    points="50,15 83,32.5 83,67.5 50,85 17,67.5 17,32.5"
    fill="none"
    stroke="#00ffff"
    stroke-width="1"
    opacity="0.4"
  />

  <!-- Stylized pen/stylus -->
  <g transform="translate(50,50) rotate(-45)">
    <!-- Pen body -->
    <rect x="-5" y="-25" width="10" height="35" fill="url(#penGrad)" rx="2"/>
    <!-- Pen tip -->
    <polygon points="0,15 -5,10 5,10" fill="#00ffff"/>
    <!-- Pen grip lines -->
    <line x1="-5" y1="-5" x2="5" y2="-5" stroke="#0a0a0a" stroke-width="1"/>
    <line x1="-5" y1="0" x2="5" y2="0" stroke="#0a0a0a" stroke-width="1"/>
  </g>

  <!-- Circuit dots -->
  <circle cx="25" cy="35" r="2" fill="#00ffff" opacity="0.7"/>
  <circle cx="75" cy="35" r="2" fill="#00ffff" opacity="0.7"/>
  <circle cx="25" cy="65" r="2" fill="#00ffff" opacity="0.7"/>
  <circle cx="75" cy="65" r="2" fill="#00ffff" opacity="0.7"/>
</svg>
